<svg width="136" height="41" viewBox="0 0 136 41" fill="none" xmlns="http://www.w3.org/2000/svg">
<rect x="1.28809" y="1.46387" width="134" height="39" rx="6.5" fill="black"/>
<rect x="1.28809" y="1.46387" width="134" height="39" rx="6.5" stroke="#A6A6A6"/>
<path d="M82.3138 20.1652V22.4562H80.8777V23.9587H82.3138V29.0637C82.3138 30.8068 83.1023 31.5041 85.0862 31.5041C85.4349 31.5041 85.7669 31.4626 86.0574 31.4128V29.9269C85.8084 29.9518 85.6507 29.9684 85.3768 29.9684C84.4886 29.9684 84.0984 29.5534 84.0984 28.6071V23.9587H86.0574V22.4562H84.0984V20.1652H82.3138Z" fill="white"/>
<path d="M91.1113 31.6286C93.7509 31.6286 95.3696 29.8605 95.3696 26.9304C95.3696 24.0168 93.7426 22.2404 91.1113 22.2404C88.4716 22.2404 86.8447 24.0168 86.8447 26.9304C86.8447 29.8605 88.4633 31.6286 91.1113 31.6286ZM91.1113 30.0431C89.559 30.0431 88.6874 28.9059 88.6874 26.9304C88.6874 24.9714 89.559 23.8259 91.1113 23.8259C92.6552 23.8259 93.5351 24.9714 93.5351 26.9304C93.5351 28.8976 92.6552 30.0431 91.1113 30.0431Z" fill="white"/>
<path d="M96.7545 31.4543H98.5391V26.1169C98.5391 24.8469 99.4937 23.9919 100.847 23.9919C101.162 23.9919 101.693 24.05 101.843 24.0998V22.34C101.652 22.2902 101.312 22.2653 101.046 22.2653C99.8673 22.2653 98.8629 22.9128 98.6055 23.801H98.4727V22.4147H96.7545V31.4543Z" fill="white"/>
<path d="M106.274 23.7595C107.594 23.7595 108.457 24.6808 108.499 26.1003H103.933C104.033 24.6891 104.954 23.7595 106.274 23.7595ZM108.49 29.0138C108.158 29.7194 107.42 30.1096 106.341 30.1096C104.913 30.1096 103.991 29.1052 103.933 27.5197V27.4201H110.317V26.7975C110.317 23.9587 108.798 22.2404 106.282 22.2404C103.734 22.2404 102.115 24.0749 102.115 26.9636C102.115 29.8522 103.701 31.6286 106.291 31.6286C108.358 31.6286 109.802 30.6325 110.209 29.0138H108.49Z" fill="white"/>
<path d="M70.6102 28.1161C70.7478 30.3358 72.5976 31.7554 75.3507 31.7554C78.2931 31.7554 80.1343 30.267 80.1343 27.8924C80.1343 26.0255 79.0847 24.993 76.538 24.3994L75.17 24.0639C73.5526 23.6853 72.8987 23.1777 72.8987 22.2915C72.8987 21.1731 73.9139 20.4418 75.4368 20.4418C76.8821 20.4418 77.8802 21.1559 78.0608 22.3001H79.9364C79.8246 20.2095 77.9834 18.7383 75.4626 18.7383C72.7525 18.7383 70.9457 20.2095 70.9457 22.4206C70.9457 24.2445 71.9695 25.3286 74.2151 25.8534L75.8153 26.2405C77.4586 26.6277 78.1813 27.1955 78.1813 28.1419C78.1813 29.2432 77.0456 30.0433 75.497 30.0433C73.8365 30.0433 72.6836 29.2948 72.5202 28.1161H70.6102Z" fill="white"/>
<path d="M52.1229 22.2653C50.8943 22.2653 49.8318 22.8796 49.284 23.9089H49.1512V22.4147H47.4329V34.4592H49.2176V30.0846H49.3587C49.8318 31.0392 50.8528 31.6037 52.1395 31.6037C54.4222 31.6037 55.8748 29.8024 55.8748 26.9304C55.8748 24.0583 54.4222 22.2653 52.1229 22.2653ZM51.6165 30.0016C50.1224 30.0016 49.1844 28.8229 49.1844 26.9387C49.1844 25.0461 50.1224 23.8674 51.6248 23.8674C53.1355 23.8674 54.0403 25.0212 54.0403 26.9304C54.0403 28.8478 53.1355 30.0016 51.6165 30.0016Z" fill="white"/>
<path d="M62.1196 22.2653C60.8911 22.2653 59.8286 22.8796 59.2808 23.9089H59.148V22.4147H57.4297V34.4592H59.2144V30.0846H59.3555C59.8286 31.0392 60.8496 31.6037 62.1362 31.6037C64.419 31.6037 65.8716 29.8024 65.8716 26.9304C65.8716 24.0583 64.419 22.2653 62.1196 22.2653ZM61.6133 30.0016C60.1192 30.0016 59.1812 28.8229 59.1812 26.9387C59.1812 25.0461 60.1192 23.8674 61.6216 23.8674C63.1323 23.8674 64.0371 25.0212 64.0371 26.9304C64.0371 28.8478 63.1323 30.0016 61.6133 30.0016Z" fill="white"/>
<path d="M44.2309 31.4543H46.2785L41.7961 19.0394H39.7227L35.2402 31.4543H37.219L38.3633 28.1591H43.0952L44.2309 31.4543ZM40.6604 21.2935H40.8067L42.6048 26.5417H38.8537L40.6604 21.2935Z" fill="white"/>
<path d="M36.4395 9.67456V15.6636H38.6018C40.3865 15.6636 41.4199 14.5637 41.4199 12.6504C41.4199 10.7661 40.3782 9.67456 38.6018 9.67456H36.4395ZM37.3691 10.5212H38.498C39.739 10.5212 40.4736 11.3098 40.4736 12.6628C40.4736 14.0366 39.7515 14.8169 38.498 14.8169H37.3691V10.5212Z" fill="white"/>
<path d="M44.585 15.7507C45.9048 15.7507 46.7142 14.8667 46.7142 13.4016C46.7142 11.9448 45.9007 11.0566 44.585 11.0566C43.2652 11.0566 42.4517 11.9448 42.4517 13.4016C42.4517 14.8667 43.261 15.7507 44.585 15.7507ZM44.585 14.958C43.8089 14.958 43.3731 14.3894 43.3731 13.4016C43.3731 12.4221 43.8089 11.8494 44.585 11.8494C45.357 11.8494 45.7969 12.4221 45.7969 13.4016C45.7969 14.3853 45.357 14.958 44.585 14.958Z" fill="white"/>
<path d="M53.6063 11.1438H52.714L51.9088 14.5928H51.8382L50.9085 11.1438H50.0536L49.1239 14.5928H49.0575L48.2481 11.1438H47.3434L48.5885 15.6636H49.5057L50.4354 12.335H50.506L51.4398 15.6636H52.3653L53.6063 11.1438Z" fill="white"/>
<path d="M54.6339 15.6636H55.5263V13.0198C55.5263 12.3142 55.9455 11.8743 56.6054 11.8743C57.2653 11.8743 57.5807 12.2354 57.5807 12.9617V15.6636H58.473V12.7375C58.473 11.6626 57.9169 11.0566 56.9083 11.0566C56.2277 11.0566 55.7794 11.3596 55.5595 11.8618H55.4931V11.1438H54.6339V15.6636Z" fill="white"/>
<path d="M59.8784 15.6636H60.7707V9.37988H59.8784V15.6636Z" fill="white"/>
<path d="M64.1267 15.7507C65.4465 15.7507 66.2559 14.8667 66.2559 13.4016C66.2559 11.9448 65.4424 11.0566 64.1267 11.0566C62.8069 11.0566 61.9934 11.9448 61.9934 13.4016C61.9934 14.8667 62.8027 15.7507 64.1267 15.7507ZM64.1267 14.958C63.3506 14.958 62.9148 14.3894 62.9148 13.4016C62.9148 12.4221 63.3506 11.8494 64.1267 11.8494C64.8987 11.8494 65.3386 12.4221 65.3386 13.4016C65.3386 14.3853 64.8987 14.958 64.1267 14.958Z" fill="white"/>
<path d="M68.9146 14.9871C68.429 14.9871 68.0762 14.7505 68.0762 14.3438C68.0762 13.9453 68.3584 13.7336 68.981 13.6921L70.085 13.6216V13.9993C70.085 14.5596 69.587 14.9871 68.9146 14.9871ZM68.6863 15.7383C69.2798 15.7383 69.7737 15.481 70.0435 15.0286H70.1141V15.6636H70.9732V12.5757C70.9732 11.6211 70.334 11.0566 69.201 11.0566C68.1758 11.0566 67.4454 11.5547 67.3541 12.3308H68.2173C68.3169 12.0112 68.6614 11.8286 69.1595 11.8286C69.7696 11.8286 70.085 12.0984 70.085 12.5757V12.9658L68.8606 13.0364C67.7857 13.1028 67.1797 13.5718 67.1797 14.3853C67.1797 15.2112 67.8147 15.7383 68.6863 15.7383Z" fill="white"/>
<path d="M74.0013 15.7383C74.6239 15.7383 75.151 15.4436 75.4207 14.9497H75.4913V15.6636H76.3463V9.37988H75.454V11.8618H75.3875C75.1427 11.3638 74.6197 11.0691 74.0013 11.0691C72.86 11.0691 72.1253 11.9739 72.1253 13.4016C72.1253 14.8335 72.8517 15.7383 74.0013 15.7383ZM74.2545 11.8701C75.0016 11.8701 75.4706 12.4636 75.4706 13.4058C75.4706 14.3521 75.0057 14.9373 74.2545 14.9373C73.4991 14.9373 73.0467 14.3604 73.0467 13.4016C73.0467 12.4512 73.5033 11.8701 74.2545 11.8701Z" fill="white"/>
<path d="M82.1328 15.7507C83.4526 15.7507 84.2619 14.8667 84.2619 13.4016C84.2619 11.9448 83.4484 11.0566 82.1328 11.0566C80.8129 11.0566 79.9995 11.9448 79.9995 13.4016C79.9995 14.8667 80.8088 15.7507 82.1328 15.7507ZM82.1328 14.958C81.3566 14.958 80.9208 14.3894 80.9208 13.4016C80.9208 12.4221 81.3566 11.8494 82.1328 11.8494C82.9047 11.8494 83.3447 12.4221 83.3447 13.4016C83.3447 14.3853 82.9047 14.958 82.1328 14.958Z" fill="white"/>
<path d="M85.4431 15.6636H86.3354V13.0198C86.3354 12.3142 86.7546 11.8743 87.4146 11.8743C88.0745 11.8743 88.3899 12.2354 88.3899 12.9617V15.6636H89.2822V12.7375C89.2822 11.6626 88.7261 11.0566 87.7175 11.0566C87.0369 11.0566 86.5886 11.3596 86.3687 11.8618H86.3022V11.1438H85.4431V15.6636Z" fill="white"/>
<path d="M93.3919 10.019V11.1646H92.6739V11.9158H93.3919V14.4683C93.3919 15.3398 93.7862 15.6885 94.7782 15.6885C94.9525 15.6885 95.1185 15.6677 95.2638 15.6428V14.8999C95.1393 14.9124 95.0604 14.9207 94.9234 14.9207C94.4793 14.9207 94.2843 14.7131 94.2843 14.24V11.9158H95.2638V11.1646H94.2843V10.019H93.3919Z" fill="white"/>
<path d="M96.4616 15.6636H97.3539V13.0239C97.3539 12.3391 97.7606 11.8784 98.4911 11.8784C99.122 11.8784 99.4582 12.2437 99.4582 12.9658V15.6636H100.35V12.7458C100.35 11.6709 99.757 11.0608 98.7941 11.0608C98.1134 11.0608 97.6361 11.3638 97.4162 11.8701H97.3456V9.37988H96.4616V15.6636Z" fill="white"/>
<path d="M103.57 11.8162C104.229 11.8162 104.661 12.2769 104.682 12.9866H102.399C102.449 12.281 102.91 11.8162 103.57 11.8162ZM104.678 14.4434C104.512 14.7961 104.142 14.9912 103.603 14.9912C102.889 14.9912 102.428 14.489 102.399 13.6963V13.6465H105.591V13.3352C105.591 11.9158 104.831 11.0566 103.574 11.0566C102.3 11.0566 101.49 11.9739 101.49 13.4182C101.49 14.8625 102.283 15.7507 103.578 15.7507C104.611 15.7507 105.333 15.2527 105.537 14.4434H104.678Z" fill="white"/>
<path d="M25.5571 21.2649C25.5787 19.5839 26.4815 17.9933 27.9136 17.1129C27.0102 15.8225 25.4969 15.0044 23.9225 14.9552C22.2432 14.7789 20.6153 15.96 19.7596 15.96C18.8873 15.96 17.5698 14.9727 16.1511 15.0019C14.3018 15.0616 12.5779 16.113 11.6782 17.7297C9.74416 21.0782 11.1867 25.9992 13.0394 28.7058C13.9663 30.0312 15.0495 31.5116 16.467 31.4591C17.854 31.4016 18.3721 30.5746 20.0464 30.5746C21.7051 30.5746 22.1912 31.4591 23.6374 31.4257C25.1258 31.4016 26.0635 30.0945 26.9579 28.7566C27.6239 27.8122 28.1363 26.7685 28.4763 25.6641C26.7272 24.9243 25.5591 23.1641 25.5571 21.2649Z" fill="white"/>
<path d="M22.8254 13.1752C23.6369 12.201 24.0367 10.9488 23.9399 9.68457C22.7001 9.81479 21.5548 10.4073 20.7324 11.3442C19.9281 12.2595 19.5095 13.4897 19.5886 14.7056C20.8289 14.7183 22.0482 14.1418 22.8254 13.1752Z" fill="white"/>
</svg>
