<svg width="136" height="41" viewBox="0 0 136 41" fill="none" xmlns="http://www.w3.org/2000/svg">
<rect x="1.28809" y="1.46387" width="134" height="39" rx="4.5" fill="black"/>
<rect x="1.28809" y="1.46387" width="134" height="39" rx="4.5" stroke="#A6A6A6"/>
<path d="M68.9241 22.7147C66.5721 22.7147 64.6551 24.5037 64.6551 26.9677C64.6551 29.4167 66.5721 31.2207 68.9241 31.2207C71.2771 31.2207 73.1941 29.4167 73.1941 26.9677C73.1931 24.5037 71.2761 22.7147 68.9241 22.7147ZM68.9241 29.5467C67.6351 29.5467 66.5241 28.4837 66.5241 26.9687C66.5241 25.4377 67.6361 24.3907 68.9241 24.3907C70.2131 24.3907 71.3241 25.4377 71.3241 26.9687C71.3241 28.4827 70.2131 29.5467 68.9241 29.5467ZM59.6101 22.7147C57.2581 22.7147 55.3411 24.5037 55.3411 26.9677C55.3411 29.4167 57.2581 31.2207 59.6101 31.2207C61.9631 31.2207 63.8801 29.4167 63.8801 26.9677C63.8801 24.5037 61.9631 22.7147 59.6101 22.7147ZM59.6101 29.5467C58.3211 29.5467 57.2101 28.4837 57.2101 26.9687C57.2101 25.4377 58.3221 24.3907 59.6101 24.3907C60.8991 24.3907 62.0101 25.4377 62.0101 26.9687C62.0111 28.4827 60.8991 29.5467 59.6101 29.5467ZM48.5321 24.0207V25.8247H52.8501C52.7211 26.8397 52.3831 27.5807 51.8671 28.0957C51.2391 28.7237 50.2561 29.4167 48.5321 29.4167C45.8741 29.4167 43.7961 27.2737 43.7961 24.6157C43.7961 21.9577 45.8741 19.8147 48.5321 19.8147C49.9661 19.8147 51.0131 20.3787 51.7861 21.1037L53.0591 19.8307C51.9791 18.7997 50.5461 18.0107 48.5321 18.0107C44.8911 18.0107 41.8301 20.9747 41.8301 24.6157C41.8301 28.2567 44.8911 31.2207 48.5321 31.2207C50.4971 31.2207 51.9801 30.5757 53.1391 29.3677C54.3311 28.1757 54.7021 26.4997 54.7021 25.1467C54.7021 24.7287 54.6701 24.3417 54.6051 24.0197H48.5321V24.0207ZM93.8401 25.4217C93.4861 24.4717 92.4061 22.7147 90.1991 22.7147C88.0081 22.7147 86.1871 24.4387 86.1871 26.9677C86.1871 29.3517 87.9921 31.2207 90.4081 31.2207C92.3571 31.2207 93.4851 30.0287 93.9531 29.3357L92.5031 28.3687C92.0201 29.0777 91.3591 29.5447 90.4081 29.5447C89.4581 29.5447 88.7811 29.1097 88.3461 28.2557L94.0331 25.9037L93.8401 25.4217ZM88.0401 26.8397C87.9921 25.1957 89.3131 24.3587 90.2641 24.3587C91.0051 24.3587 91.6331 24.7297 91.8431 25.2607L88.0401 26.8397ZM83.4171 30.9637H85.2851V18.4627H83.4171V30.9637ZM80.3551 23.6657H80.2911C79.8721 23.1657 79.0661 22.7147 78.0521 22.7147C75.9251 22.7147 73.9761 24.5837 73.9761 26.9847C73.9761 29.3687 75.9251 31.2217 78.0521 31.2217C79.0671 31.2217 79.8721 30.7707 80.2911 30.2557H80.3551V30.8677C80.3551 32.4947 79.4851 33.3647 78.0841 33.3647C76.9401 33.3647 76.2311 32.5437 75.9411 31.8507L74.3141 32.5277C74.7811 33.6547 76.0211 35.0407 78.0841 35.0407C80.2751 35.0407 82.1281 33.7517 82.1281 30.6097V22.9737H80.3561V23.6657H80.3551ZM78.2131 29.5467C76.9241 29.5467 75.8451 28.4667 75.8451 26.9847C75.8451 25.4857 76.9241 24.3907 78.2131 24.3907C79.4851 24.3907 80.4841 25.4857 80.4841 26.9847C80.4841 28.4667 79.4851 29.5467 78.2131 29.5467ZM102.594 18.4627H98.1231V30.9637H99.9881V26.2277H102.593C104.661 26.2277 106.695 24.7307 106.695 22.3457C106.695 19.9607 104.662 18.4627 102.594 18.4627ZM102.642 24.4877H99.9881V20.2027H102.642C104.037 20.2027 104.829 21.3577 104.829 22.3457C104.829 23.3137 104.037 24.4877 102.642 24.4877ZM114.174 22.6927C112.823 22.6927 111.424 23.2877 110.845 24.6067L112.501 25.2977C112.855 24.6067 113.515 24.3807 114.206 24.3807C115.171 24.3807 116.152 24.9597 116.168 25.9887V26.1177C115.83 25.9247 115.106 25.6357 114.222 25.6357C112.437 25.6357 110.619 26.6167 110.619 28.4497C110.619 30.1227 112.083 31.1997 113.723 31.1997C114.977 31.1997 115.669 30.6367 116.103 29.9767H116.167V30.9417H117.969V26.1487C117.97 23.9307 116.312 22.6927 114.174 22.6927ZM113.948 29.5437C113.338 29.5437 112.485 29.2377 112.485 28.4817C112.485 27.5167 113.547 27.1467 114.464 27.1467C115.283 27.1467 115.67 27.3237 116.168 27.5647C116.023 28.7237 115.026 29.5437 113.948 29.5437ZM124.531 22.9657L122.392 28.3857H122.328L120.108 22.9657H118.098L121.427 30.5407L119.529 34.7547H121.475L126.606 22.9657H124.531ZM107.725 30.9637H109.59V18.4627H107.725V30.9637Z" fill="white"/>
<path d="M48.2066 11.2071C48.2066 12.0451 47.9586 12.7121 47.4616 13.2101C46.8976 13.8021 46.1616 14.0981 45.2576 14.0981C44.3916 14.0981 43.6546 13.7981 43.0496 13.1981C42.4436 12.5971 42.1406 11.8531 42.1406 10.9651C42.1406 10.0761 42.4436 9.33205 43.0496 8.73205C43.6546 8.13105 44.3916 7.83106 45.2576 7.83106C45.6876 7.83106 46.0986 7.91505 46.4886 8.08205C46.8796 8.25005 47.1926 8.47306 47.4266 8.75206L46.8996 9.28005C46.5026 8.80505 45.9556 8.56806 45.2566 8.56806C44.6246 8.56806 44.0786 8.79006 43.6176 9.23406C43.1566 9.67806 42.9266 10.2551 42.9266 10.9641C42.9266 11.6731 43.1566 12.2501 43.6176 12.6941C44.0786 13.1381 44.6246 13.3601 45.2566 13.3601C45.9266 13.3601 46.4856 13.1371 46.9326 12.6901C47.2226 12.3991 47.3906 11.9941 47.4356 11.4751H45.2566V10.7541H48.1636C48.1936 10.9111 48.2066 11.0621 48.2066 11.2071Z" fill="white"/>
<path d="M52.8167 8.70111H50.0847V10.6031H52.5487V11.3241H50.0847V13.2261H52.8167V13.9641H49.3137V7.96411H52.8167V8.70111Z" fill="white"/>
<path d="M56.0676 13.9641H55.2966V8.70111H53.6206V7.96411H57.7436V8.70111H56.0676V13.9641Z" fill="white"/>
<path d="M60.7266 13.9641V7.96411H61.4976V13.9641H60.7266Z" fill="white"/>
<path d="M64.9167 13.9641H64.1457V8.70111H62.4697V7.96411H66.5927V8.70111H64.9167V13.9641Z" fill="white"/>
<path d="M74.3975 13.1891C73.8075 13.7951 73.0745 14.0981 72.1975 14.0981C71.3205 14.0981 70.5875 13.7951 69.9985 13.1891C69.4085 12.5831 69.1145 11.8411 69.1145 10.9641C69.1145 10.0871 69.4085 9.3451 69.9985 8.7391C70.5875 8.1331 71.3205 7.8291 72.1975 7.8291C73.0695 7.8291 73.8015 8.1341 74.3935 8.7431C74.9855 9.3521 75.2815 10.0921 75.2815 10.9641C75.2815 11.8411 74.9865 12.5831 74.3975 13.1891ZM70.5675 12.6861C71.0115 13.1361 71.5545 13.3601 72.1975 13.3601C72.8405 13.3601 73.3845 13.1351 73.8275 12.6861C74.2715 12.2361 74.4945 11.6621 74.4945 10.9641C74.4945 10.2661 74.2715 9.6921 73.8275 9.2421C73.3845 8.7921 72.8405 8.5681 72.1975 8.5681C71.5545 8.5681 71.0115 8.7931 70.5675 9.2421C70.1245 9.6921 69.9015 10.2661 69.9015 10.9641C69.9015 11.6621 70.1245 12.2361 70.5675 12.6861Z" fill="white"/>
<path d="M76.3635 13.9641V7.96411H77.3015L80.2175 12.6311H80.2505L80.2175 11.4751V7.96411H80.9885V13.9641H80.1835L77.1325 9.07011H77.0995L77.1325 10.2261V13.9641H76.3635Z" fill="white"/>
<path d="M48.2066 11.2071C48.2066 12.0451 47.9586 12.7121 47.4616 13.2101C46.8976 13.8021 46.1616 14.0981 45.2576 14.0981C44.3916 14.0981 43.6546 13.7981 43.0496 13.1981C42.4436 12.5971 42.1406 11.8531 42.1406 10.9651C42.1406 10.0761 42.4436 9.33205 43.0496 8.73205C43.6546 8.13105 44.3916 7.83106 45.2576 7.83106C45.6876 7.83106 46.0986 7.91505 46.4886 8.08205C46.8796 8.25005 47.1926 8.47306 47.4266 8.75206L46.8996 9.28005C46.5026 8.80505 45.9556 8.56806 45.2566 8.56806C44.6246 8.56806 44.0786 8.79006 43.6176 9.23406C43.1566 9.67806 42.9266 10.2551 42.9266 10.9641C42.9266 11.6731 43.1566 12.2501 43.6176 12.6941C44.0786 13.1381 44.6246 13.3601 45.2566 13.3601C45.9266 13.3601 46.4856 13.1371 46.9326 12.6901C47.2226 12.3991 47.3906 11.9941 47.4356 11.4751H45.2566V10.7541H48.1636C48.1936 10.9111 48.2066 11.0621 48.2066 11.2071Z" stroke="white" stroke-width="0.2" stroke-miterlimit="10"/>
<path d="M52.8167 8.70111H50.0847V10.6031H52.5487V11.3241H50.0847V13.2261H52.8167V13.9641H49.3137V7.96411H52.8167V8.70111Z" stroke="white" stroke-width="0.2" stroke-miterlimit="10"/>
<path d="M56.0676 13.9641H55.2966V8.70111H53.6206V7.96411H57.7436V8.70111H56.0676V13.9641Z" stroke="white" stroke-width="0.2" stroke-miterlimit="10"/>
<path d="M60.7266 13.9641V7.96411H61.4976V13.9641H60.7266Z" stroke="white" stroke-width="0.2" stroke-miterlimit="10"/>
<path d="M64.9167 13.9641H64.1457V8.70111H62.4697V7.96411H66.5927V8.70111H64.9167V13.9641Z" stroke="white" stroke-width="0.2" stroke-miterlimit="10"/>
<path d="M74.3975 13.1891C73.8075 13.7951 73.0745 14.0981 72.1975 14.0981C71.3205 14.0981 70.5875 13.7951 69.9985 13.1891C69.4085 12.5831 69.1145 11.8411 69.1145 10.9641C69.1145 10.0871 69.4085 9.3451 69.9985 8.7391C70.5875 8.1331 71.3205 7.8291 72.1975 7.8291C73.0695 7.8291 73.8015 8.1341 74.3935 8.7431C74.9855 9.3521 75.2815 10.0921 75.2815 10.9641C75.2815 11.8411 74.9865 12.5831 74.3975 13.1891ZM70.5675 12.6861C71.0115 13.1361 71.5545 13.3601 72.1975 13.3601C72.8405 13.3601 73.3845 13.1351 73.8275 12.6861C74.2715 12.2361 74.4945 11.6621 74.4945 10.9641C74.4945 10.2661 74.2715 9.6921 73.8275 9.2421C73.3845 8.7921 72.8405 8.5681 72.1975 8.5681C71.5545 8.5681 71.0115 8.7931 70.5675 9.2421C70.1245 9.6921 69.9015 10.2661 69.9015 10.9641C69.9015 11.6621 70.1245 12.2361 70.5675 12.6861Z" stroke="white" stroke-width="0.2" stroke-miterlimit="10"/>
<path d="M76.3635 13.9641V7.96411H77.3015L80.2175 12.6311H80.2505L80.2175 11.4751V7.96411H80.9885V13.9641H80.1835L77.1325 9.07011H77.0995L77.1325 10.2261V13.9641H76.3635Z" stroke="white" stroke-width="0.2" stroke-miterlimit="10"/>
<g filter="url(#filter0_ii_1339_4197)">
<path d="M11.2237 8.50171C10.9327 8.80971 10.7607 9.28771 10.7607 9.90671V32.0227C10.7607 32.6427 10.9327 33.1197 11.2237 33.4277L11.2977 33.4997L23.6867 21.1107V20.9647V20.8187L11.2977 8.42871L11.2237 8.50171Z" fill="url(#paint0_linear_1339_4197)"/>
<path d="M27.8155 25.2415L23.6865 21.1105V20.9645V20.8185L27.8165 16.6885L27.9095 16.7415L32.8025 19.5215C34.1995 20.3155 34.1995 21.6145 32.8025 22.4095L27.9095 25.1895L27.8155 25.2415Z" fill="url(#paint1_linear_1339_4197)"/>
<g filter="url(#filter1_i_1339_4197)">
<path d="M27.9096 25.1888L23.6856 20.9648L11.2236 33.4278C11.6836 33.9158 12.4446 33.9758 13.3016 33.4898L27.9096 25.1888Z" fill="url(#paint2_linear_1339_4197)"/>
</g>
<path d="M27.9096 16.7406L13.3016 8.44057C12.4446 7.95357 11.6836 8.01457 11.2236 8.50257L23.6866 20.9656L27.9096 16.7406Z" fill="url(#paint3_linear_1339_4197)"/>
</g>
<defs>
<filter id="filter0_ii_1339_4197" x="10.7607" y="8.10449" width="23.0898" height="25.7207" filterUnits="userSpaceOnUse" color-interpolation-filters="sRGB">
<feFlood flood-opacity="0" result="BackgroundImageFix"/>
<feBlend mode="normal" in="SourceGraphic" in2="BackgroundImageFix" result="shape"/>
<feColorMatrix in="SourceAlpha" type="matrix" values="0 0 0 0 0 0 0 0 0 0 0 0 0 0 0 0 0 0 127 0" result="hardAlpha"/>
<feOffset dy="-0.15"/>
<feComposite in2="hardAlpha" operator="arithmetic" k2="-1" k3="1"/>
<feColorMatrix type="matrix" values="0 0 0 0 0 0 0 0 0 0 0 0 0 0 0 0 0 0 0.12 0"/>
<feBlend mode="normal" in2="shape" result="effect1_innerShadow_1339_4197"/>
<feColorMatrix in="SourceAlpha" type="matrix" values="0 0 0 0 0 0 0 0 0 0 0 0 0 0 0 0 0 0 127 0" result="hardAlpha"/>
<feOffset dy="0.15"/>
<feComposite in2="hardAlpha" operator="arithmetic" k2="-1" k3="1"/>
<feColorMatrix type="matrix" values="0 0 0 0 1 0 0 0 0 1 0 0 0 0 1 0 0 0 0.25 0"/>
<feBlend mode="normal" in2="effect1_innerShadow_1339_4197" result="effect2_innerShadow_1339_4197"/>
</filter>
<filter id="filter1_i_1339_4197" x="11.2236" y="20.9648" width="16.6855" height="12.8604" filterUnits="userSpaceOnUse" color-interpolation-filters="sRGB">
<feFlood flood-opacity="0" result="BackgroundImageFix"/>
<feBlend mode="normal" in="SourceGraphic" in2="BackgroundImageFix" result="shape"/>
<feColorMatrix in="SourceAlpha" type="matrix" values="0 0 0 0 0 0 0 0 0 0 0 0 0 0 0 0 0 0 127 0" result="hardAlpha"/>
<feOffset dy="-0.15"/>
<feComposite in2="hardAlpha" operator="arithmetic" k2="-1" k3="1"/>
<feColorMatrix type="matrix" values="0 0 0 0 0 0 0 0 0 0 0 0 0 0 0 0 0 0 0.08 0"/>
<feBlend mode="normal" in2="shape" result="effect1_innerShadow_1339_4197"/>
</filter>
<linearGradient id="paint0_linear_1339_4197" x1="22.5885" y1="9.67271" x2="5.80654" y2="26.4547" gradientUnits="userSpaceOnUse">
<stop stop-color="#00A0FF"/>
<stop offset="0.0066" stop-color="#00A1FF"/>
<stop offset="0.2601" stop-color="#00BEFF"/>
<stop offset="0.5122" stop-color="#00D2FF"/>
<stop offset="0.7604" stop-color="#00DFFF"/>
<stop offset="1" stop-color="#00E3FF"/>
</linearGradient>
<linearGradient id="paint1_linear_1339_4197" x1="34.621" y1="20.9645" x2="10.4251" y2="20.9645" gradientUnits="userSpaceOnUse">
<stop stop-color="#FFE000"/>
<stop offset="0.4087" stop-color="#FFBD00"/>
<stop offset="0.7754" stop-color="#FFA500"/>
<stop offset="1" stop-color="#FF9C00"/>
</linearGradient>
<linearGradient id="paint2_linear_1339_4197" x1="25.6157" y1="23.2587" x2="2.85724" y2="46.0172" gradientUnits="userSpaceOnUse">
<stop stop-color="#FF3A44"/>
<stop offset="1" stop-color="#C31162"/>
</linearGradient>
<linearGradient id="paint3_linear_1339_4197" x1="8.08503" y1="1.14037" x2="18.2473" y2="11.3027" gradientUnits="userSpaceOnUse">
<stop stop-color="#32A071"/>
<stop offset="0.0685" stop-color="#2DA771"/>
<stop offset="0.4762" stop-color="#15CF74"/>
<stop offset="0.8009" stop-color="#06E775"/>
<stop offset="1" stop-color="#00F076"/>
</linearGradient>
</defs>
</svg>
